<svg width="730" height="180" viewBox="0 0 730 180" fill="none" xmlns="http://www.w3.org/2000/svg">
<path d="M184.254 130.951C182.183 130.951 180.586 130.39 179.464 129.268C178.342 128.06 177.782 126.421 177.782 124.35V72.5738C177.782 70.4165 178.342 68.7769 179.464 67.6551C180.586 66.5333 182.139 65.9724 184.124 65.9724C186.195 65.9724 187.748 66.5333 188.784 67.6551C189.906 68.7769 190.467 70.4165 190.467 72.5738V83.1879L189.043 80.3402C190.769 75.7667 193.444 72.1855 197.068 69.5967C200.692 67.0079 205.05 65.7136 210.141 65.7136C215.405 65.7136 219.677 66.9648 222.956 69.4673C226.235 71.9698 228.479 75.8098 229.687 80.9874H227.875C229.514 76.2413 232.319 72.5307 236.288 69.8556C240.258 67.0942 244.874 65.7136 250.138 65.7136C254.971 65.7136 258.94 66.6628 262.047 68.5612C265.153 70.3734 267.483 73.1779 269.036 76.9748C270.59 80.6854 271.366 85.3883 271.366 91.0837V124.35C271.366 126.421 270.762 128.06 269.554 129.268C268.432 130.39 266.836 130.951 264.765 130.951C262.694 130.951 261.097 130.39 259.976 129.268C258.854 128.06 258.293 126.421 258.293 124.35V91.7309C258.293 86.3807 257.344 82.4544 255.445 79.9519C253.633 77.4494 250.613 76.1981 246.384 76.1981C241.638 76.1981 237.885 77.8377 235.123 81.1168C232.362 84.396 230.981 88.9263 230.981 94.708V124.35C230.981 126.421 230.42 128.06 229.298 129.268C228.177 130.39 226.58 130.951 224.509 130.951C222.438 130.951 220.799 130.39 219.591 129.268C218.469 128.06 217.908 126.421 217.908 124.35V91.7309C217.908 86.3807 217.002 82.4544 215.19 79.9519C213.377 77.4494 210.357 76.1981 206.129 76.1981C201.383 76.1981 197.629 77.8377 194.868 81.1168C192.193 84.396 190.855 88.9263 190.855 94.708V124.35C190.855 128.751 188.655 130.951 184.254 130.951ZM319.286 131.21C312.383 131.21 306.428 129.915 301.424 127.327C296.505 124.652 292.665 120.898 289.903 116.065C287.228 111.147 285.891 105.322 285.891 98.5912C285.891 92.0329 287.228 86.2944 289.903 81.3757C292.578 76.457 296.246 72.617 300.906 69.8556C305.566 67.0942 310.873 65.7136 316.827 65.7136C321.228 65.7136 325.154 66.447 328.606 67.914C332.057 69.2947 334.991 71.3657 337.408 74.1271C339.91 76.8022 341.765 80.0813 342.974 83.9645C344.268 87.8477 344.915 92.2055 344.915 97.0379C344.915 98.5049 344.484 99.6267 343.621 100.403C342.758 101.094 341.463 101.439 339.738 101.439H296.246V93.4136H336.113L333.913 95.2257C333.913 90.9111 333.266 87.2436 331.971 84.2234C330.763 81.2031 328.908 78.9164 326.405 77.3631C323.989 75.7235 320.969 74.9037 317.345 74.9037C313.289 74.9037 309.837 75.853 306.989 77.7514C304.228 79.6499 302.114 82.2818 300.647 85.6472C299.18 89.0126 298.446 92.939 298.446 97.4262V98.2028C298.446 105.797 300.215 111.535 303.753 115.418C307.378 119.215 312.598 121.114 319.416 121.114C322.004 121.114 324.723 120.768 327.57 120.078C330.504 119.388 333.266 118.223 335.854 116.583C337.321 115.72 338.616 115.332 339.738 115.418C340.946 115.505 341.895 115.893 342.585 116.583C343.362 117.274 343.836 118.136 344.009 119.172C344.182 120.208 344.009 121.286 343.491 122.408C342.974 123.444 342.067 124.393 340.773 125.256C337.839 127.24 334.431 128.751 330.547 129.786C326.664 130.735 322.91 131.21 319.286 131.21ZM381.302 131.21C377.505 131.21 373.579 130.778 369.523 129.915C365.553 129.053 361.886 127.586 358.52 125.515C357.399 124.738 356.622 123.875 356.191 122.926C355.759 121.977 355.586 121.027 355.673 120.078C355.845 119.043 356.234 118.18 356.838 117.489C357.528 116.713 358.348 116.238 359.297 116.065C360.333 115.893 361.411 116.109 362.533 116.713C365.898 118.611 369.134 119.949 372.241 120.725C375.348 121.416 378.411 121.761 381.431 121.761C386.005 121.761 389.456 120.941 391.786 119.301C394.116 117.662 395.281 115.461 395.281 112.7C395.281 110.456 394.505 108.731 392.951 107.522C391.398 106.228 389.068 105.236 385.962 104.545L373.665 102.086C368.315 100.964 364.259 98.9795 361.498 96.1318C358.736 93.2841 357.355 89.6598 357.355 85.2589C357.355 81.2894 358.434 77.8377 360.591 74.9037C362.749 71.9698 365.769 69.7262 369.652 68.1729C373.535 66.5333 378.023 65.7136 383.114 65.7136C386.911 65.7136 390.492 66.1882 393.857 67.1374C397.223 68.0866 400.329 69.5104 403.177 71.4089C404.299 72.0129 405.032 72.8327 405.377 73.8682C405.723 74.8175 405.766 75.7667 405.507 76.7159C405.334 77.6651 404.903 78.528 404.213 79.3047C403.522 79.995 402.659 80.4265 401.624 80.5991C400.675 80.6854 399.596 80.4265 398.388 79.8224C395.799 78.1829 393.21 77.0179 390.621 76.3276C388.119 75.6372 385.616 75.2921 383.114 75.2921C378.54 75.2921 375.089 76.155 372.759 77.8808C370.515 79.5204 369.393 81.764 369.393 84.6117C369.393 86.769 370.084 88.538 371.464 89.9187C372.845 91.2994 375.002 92.2918 377.936 92.8958L390.233 95.3552C395.842 96.477 400.07 98.3754 402.918 101.051C405.852 103.726 407.319 107.35 407.319 111.923C407.319 117.878 404.946 122.581 400.2 126.032C395.454 129.484 389.154 131.21 381.302 131.21ZM428.337 130.951C426.266 130.951 424.669 130.39 423.548 129.268C422.426 128.06 421.865 126.421 421.865 124.35V44.4855C421.865 42.3282 422.426 40.6886 423.548 39.5668C424.669 38.445 426.266 37.8841 428.337 37.8841C430.408 37.8841 432.004 38.445 433.126 39.5668C434.334 40.6886 434.938 42.3282 434.938 44.4855V80.3402H433.126C435.024 75.5078 438.002 71.8835 442.057 69.4673C446.113 66.9648 450.773 65.7136 456.037 65.7136C461.042 65.7136 465.184 66.6628 468.463 68.5612C471.828 70.3734 474.331 73.1779 475.97 76.9748C477.61 80.6854 478.43 85.3883 478.43 91.0837V124.35C478.43 126.421 477.869 128.06 476.747 129.268C475.625 130.39 474.029 130.951 471.958 130.951C469.801 130.951 468.161 130.39 467.039 129.268C465.917 128.06 465.356 126.421 465.356 124.35V91.8603C465.356 86.4239 464.278 82.4544 462.12 79.9519C460.049 77.4494 456.77 76.1981 452.283 76.1981C447.019 76.1981 442.791 77.8377 439.598 81.1168C436.491 84.396 434.938 88.7969 434.938 94.3197V124.35C434.938 128.751 432.738 130.951 428.337 130.951ZM493.338 138.2C492.043 138.2 490.965 137.811 490.102 137.035C489.325 136.258 488.937 135.309 488.937 134.187C488.937 133.065 489.325 132.073 490.102 131.21C490.965 130.433 492.043 130.045 493.338 130.045H546.019C547.228 130.045 548.22 130.433 548.997 131.21C549.859 132.073 550.291 133.065 550.291 134.187C550.291 135.309 549.859 136.258 548.997 137.035C548.22 137.811 547.228 138.2 546.019 138.2H493.338ZM580.851 131.21C576.45 131.21 572.48 130.347 568.942 128.621C565.491 126.895 562.772 124.565 560.788 121.631C558.803 118.697 557.811 115.375 557.811 111.665C557.811 107.005 558.976 103.337 561.305 100.662C563.722 97.9008 567.648 95.9592 573.084 94.8374C578.607 93.6293 586.028 93.0253 595.348 93.0253H601.432V101.051H595.477C589.264 101.051 584.346 101.353 580.721 101.957C577.097 102.561 574.508 103.596 572.955 105.063C571.488 106.444 570.754 108.385 570.754 110.888C570.754 114.167 571.876 116.842 574.12 118.913C576.364 120.898 579.47 121.89 583.44 121.89C586.632 121.89 589.437 121.157 591.853 119.69C594.269 118.136 596.168 116.065 597.548 113.477C599.015 110.888 599.749 107.911 599.749 104.545V89.6598C599.749 84.7411 598.713 81.2031 596.642 79.0458C594.571 76.8885 591.163 75.8098 586.417 75.8098C583.655 75.8098 580.764 76.155 577.744 76.8453C574.81 77.5357 571.747 78.7006 568.554 80.3402C567.087 81.0305 565.836 81.2463 564.8 80.9874C563.765 80.7285 562.945 80.1676 562.341 79.3047C561.737 78.3555 561.392 77.3631 561.305 76.3276C561.305 75.2058 561.564 74.1271 562.082 73.0916C562.686 72.0561 563.678 71.2794 565.059 70.7617C568.856 68.9495 572.61 67.6551 576.32 66.8785C580.031 66.1019 583.526 65.7136 586.805 65.7136C592.587 65.7136 597.333 66.6196 601.043 68.4318C604.84 70.2439 607.645 73.0053 609.457 76.7159C611.269 80.4265 612.175 85.2157 612.175 91.0837V124.35C612.175 126.421 611.657 128.06 610.622 129.268C609.586 130.39 608.076 130.951 606.091 130.951C604.193 130.951 602.683 130.39 601.561 129.268C600.439 128.06 599.878 126.421 599.878 124.35V115.936H601.043C600.353 119.129 599.059 121.89 597.16 124.22C595.348 126.464 593.061 128.19 590.3 129.398C587.538 130.606 584.389 131.21 580.851 131.21ZM636.653 154.25C634.582 154.25 632.986 153.689 631.864 152.567C630.742 151.446 630.181 149.806 630.181 147.649V72.5738C630.181 70.4165 630.742 68.7769 631.864 67.6551C632.986 66.5333 634.539 65.9724 636.524 65.9724C638.595 65.9724 640.191 66.5333 641.313 67.6551C642.435 68.7769 642.996 70.4165 642.996 72.5738V83.8351L641.572 81.1168C642.953 76.457 645.671 72.7464 649.727 69.985C653.782 67.1374 658.572 65.7136 664.094 65.7136C669.703 65.7136 674.579 67.0511 678.721 69.7262C682.949 72.4012 686.185 76.155 688.429 80.9874C690.759 85.8198 691.924 91.6446 691.924 98.4617C691.924 105.106 690.759 110.931 688.429 115.936C686.185 120.855 682.993 124.652 678.851 127.327C674.708 129.915 669.79 131.21 664.094 131.21C658.658 131.21 653.912 129.829 649.856 127.068C645.8 124.306 643.082 120.639 641.701 116.065H643.255V147.649C643.255 149.806 642.651 151.446 641.443 152.567C640.321 153.689 638.724 154.25 636.653 154.25ZM660.858 121.114C664.483 121.114 667.632 120.251 670.308 118.525C672.983 116.799 675.054 114.253 676.521 110.888C677.988 107.522 678.721 103.38 678.721 98.4617C678.721 91.0405 677.082 85.4315 673.802 81.6346C670.61 77.8377 666.295 75.9393 660.858 75.9393C657.32 75.9393 654.171 76.8022 651.409 78.528C648.734 80.1676 646.663 82.6701 645.196 86.0355C643.729 89.401 642.996 93.543 642.996 98.4617C642.996 105.797 644.635 111.406 647.915 115.289C651.194 119.172 655.508 121.114 660.858 121.114ZM713.129 130.822C711.058 130.822 709.461 130.218 708.339 129.009C707.218 127.715 706.657 125.946 706.657 123.702V73.221C706.657 70.9774 707.218 69.2516 708.339 68.0435C709.461 66.8354 711.058 66.2313 713.129 66.2313C715.2 66.2313 716.796 66.8354 717.918 68.0435C719.126 69.2516 719.73 70.9774 719.73 73.221V123.702C719.73 125.946 719.169 127.715 718.047 129.009C716.926 130.218 715.286 130.822 713.129 130.822ZM713.129 52.7696C710.54 52.7696 708.512 52.1224 707.045 50.828C705.664 49.5336 704.974 47.7215 704.974 45.3916C704.974 42.9754 705.664 41.1632 707.045 39.9551C708.512 38.6607 710.54 38.0135 713.129 38.0135C715.718 38.0135 717.702 38.6607 719.083 39.9551C720.55 41.1632 721.283 42.9754 721.283 45.3916C721.283 47.7215 720.55 49.5336 719.083 50.828C717.702 52.1224 715.718 52.7696 713.129 52.7696Z" fill="#ECECEC"/>
<path d="M69.5608 20.629C72.4393 18.9674 75.9869 18.9674 78.8655 20.629L140.357 56.131C143.235 57.793 145.009 60.8657 145.009 64.1896V129.442C145.009 131.162 143.4 132.43 141.748 131.953C139.823 131.397 137.927 130.767 136.056 130.067C135.037 129.687 134.375 128.704 134.375 127.617V78.8872C134.375 76.4693 131.343 75.247 129.549 76.8684C117.545 87.7197 102.766 94.3947 87.9338 100.193C86.1071 100.907 85.6397 103.283 87.0769 104.618C104.501 120.797 121.286 134.22 143.698 137.121C146.61 137.498 148.666 140.165 148.289 143.077C147.912 145.989 145.245 148.045 142.333 147.668C113.68 143.96 93.3652 125.271 74.1473 107.068C73.4046 106.365 72.3244 106.149 71.3696 106.517C52.9028 113.624 35.4293 121.262 21.8429 135.242C20.6673 136.452 20.9835 138.428 22.4443 139.271L72.8839 168.393C73.7064 168.868 74.7199 168.868 75.5424 168.393L115.406 145.377C116.189 144.925 117.147 144.904 117.956 145.308C119.761 146.21 121.593 147.068 123.453 147.878C125.514 148.775 125.743 151.687 123.797 152.811L78.8655 178.753C75.9867 180.415 72.4396 180.415 69.5608 178.753L8.07057 143.251C5.28176 141.641 3.52981 138.708 3.4231 135.504L3.41822 135.193V70.8157C3.41822 69.0547 5.09975 67.7804 6.77632 68.319C8.68016 68.9306 10.553 69.5986 12.398 70.3189C13.4022 70.711 14.052 71.6854 14.052 72.7634V121.439C14.052 123.829 17.0081 125.05 18.789 123.457C31.2622 112.297 45.8971 105.24 60.4053 99.3919C62.2236 98.6589 62.6743 96.2816 61.2251 94.9613C44.616 79.8288 27.3425 66.7187 4.32154 62.3292C1.43732 61.7792 -0.454672 58.9957 0.0949791 56.1115C0.644937 53.2272 3.42846 51.3343 6.31275 51.8839C35.1436 57.3811 55.7071 75.0951 74.1854 92.4657C74.927 93.1628 76.0011 93.3765 76.9525 93.0151C96.7476 85.4958 114.53 78.2504 127.107 64.3062C128.204 63.09 127.855 61.1918 126.437 60.3729L75.5424 30.9892C74.7198 30.5144 73.7064 30.5144 72.8839 30.9892L32.0478 54.5661C31.2743 55.0127 30.329 55.0393 29.526 54.6482C27.6903 53.7542 25.8253 52.8978 23.9293 52.0832C21.8673 51.1972 21.6408 48.2952 23.5844 47.173L69.5608 20.629Z" fill="#1A83FE"/>
<path d="M69.5608 20.629C72.4393 18.9674 75.9869 18.9674 78.8655 20.629L140.357 56.131C143.235 57.793 145.009 60.8657 145.009 64.1896V129.442C145.009 131.162 143.4 132.43 141.748 131.953C139.823 131.397 137.927 130.767 136.056 130.067C135.037 129.687 134.375 128.704 134.375 127.617V78.8872C134.375 76.4693 131.343 75.247 129.549 76.8684C117.545 87.7197 102.766 94.3947 87.9338 100.193C86.1071 100.907 85.6397 103.283 87.0769 104.618C104.501 120.797 121.286 134.22 143.698 137.121C146.61 137.498 148.666 140.165 148.289 143.077C147.912 145.989 145.245 148.045 142.333 147.668C113.68 143.96 93.3652 125.271 74.1473 107.068C73.4046 106.365 72.3244 106.149 71.3696 106.517C52.9028 113.624 35.4293 121.262 21.8429 135.242C20.6673 136.452 20.9835 138.428 22.4443 139.271L72.8839 168.393C73.7064 168.868 74.7199 168.868 75.5424 168.393L115.406 145.377C116.189 144.925 117.147 144.904 117.956 145.308C119.761 146.21 121.593 147.068 123.453 147.878C125.514 148.775 125.743 151.687 123.797 152.811L78.8655 178.753C75.9867 180.415 72.4396 180.415 69.5608 178.753L8.07057 143.251C5.28176 141.641 3.52981 138.708 3.4231 135.504L3.41822 135.193V70.8157C3.41822 69.0547 5.09975 67.7804 6.77632 68.319C8.68016 68.9306 10.553 69.5986 12.398 70.3189C13.4022 70.711 14.052 71.6854 14.052 72.7634V121.439C14.052 123.829 17.0081 125.05 18.789 123.457C31.2622 112.297 45.8971 105.24 60.4053 99.3919C62.2236 98.6589 62.6743 96.2816 61.2251 94.9613C44.616 79.8288 27.3425 66.7187 4.32154 62.3292C1.43732 61.7792 -0.454672 58.9957 0.0949791 56.1115C0.644937 53.2272 3.42846 51.3343 6.31275 51.8839C35.1436 57.3811 55.7071 75.0951 74.1854 92.4657C74.927 93.1628 76.0011 93.3765 76.9525 93.0151C96.7476 85.4958 114.53 78.2504 127.107 64.3062C128.204 63.09 127.855 61.1918 126.437 60.3729L75.5424 30.9892C74.7198 30.5144 73.7064 30.5144 72.8839 30.9892L32.0478 54.5661C31.2743 55.0127 30.329 55.0393 29.526 54.6482C27.6903 53.7542 25.8253 52.8978 23.9293 52.0832C21.8673 51.1972 21.6408 48.2952 23.5844 47.173L69.5608 20.629Z" fill="url(#paint0_linear_51_8)"/>
<path d="M113.648 0.332031C113.918 0.637457 114.157 1.04325 114.375 1.52148C114.644 2.11546 114.875 2.80545 115.094 3.51953C115.312 4.22871 115.521 4.96911 115.74 5.64258C115.959 6.3175 116.195 6.94432 116.475 7.43555C118.629 11.2111 122.696 12.6134 126.441 13.7646C122.238 15.3123 119.769 16.6265 118.051 18.6289C116.31 20.6586 115.355 23.3786 114.111 27.6992C113.543 27.0904 113.129 26.0985 112.787 25.0156C112.598 24.42 112.434 23.8077 112.276 23.2305C112.118 22.6554 111.966 22.1123 111.804 21.666C110.913 19.2152 109.055 17.5367 106.905 16.2207C104.949 15.0239 102.726 14.1113 100.752 13.1973C104.915 12.8214 107.689 11.5829 109.642 9.46289C111.635 7.29987 112.752 4.24232 113.648 0.332031Z" fill="#1A83FE"/>
<path d="M113.648 0.332031C113.918 0.637457 114.157 1.04325 114.375 1.52148C114.644 2.11546 114.875 2.80545 115.094 3.51953C115.312 4.22871 115.521 4.96911 115.74 5.64258C115.959 6.3175 116.195 6.94432 116.475 7.43555C118.629 11.2111 122.696 12.6134 126.441 13.7646C122.238 15.3123 119.769 16.6265 118.051 18.6289C116.31 20.6586 115.355 23.3786 114.111 27.6992C113.543 27.0904 113.129 26.0985 112.787 25.0156C112.598 24.42 112.434 23.8077 112.276 23.2305C112.118 22.6554 111.966 22.1123 111.804 21.666C110.913 19.2152 109.055 17.5367 106.905 16.2207C104.949 15.0239 102.726 14.1113 100.752 13.1973C104.915 12.8214 107.689 11.5829 109.642 9.46289C111.635 7.29987 112.752 4.24232 113.648 0.332031Z" fill="url(#paint1_linear_51_8)"/>
<path d="M113.648 0.332031C113.918 0.637457 114.157 1.04325 114.375 1.52148C114.644 2.11546 114.875 2.80545 115.094 3.51953C115.312 4.22871 115.521 4.96911 115.74 5.64258C115.959 6.3175 116.195 6.94432 116.475 7.43555C118.629 11.2111 122.696 12.6134 126.441 13.7646C122.238 15.3123 119.769 16.6265 118.051 18.6289C116.31 20.6586 115.355 23.3786 114.111 27.6992C113.543 27.0904 113.129 26.0985 112.787 25.0156C112.598 24.42 112.434 23.8077 112.276 23.2305C112.118 22.6554 111.966 22.1123 111.804 21.666C110.913 19.2152 109.055 17.5367 106.905 16.2207C104.949 15.0239 102.726 14.1113 100.752 13.1973C104.915 12.8214 107.689 11.5829 109.642 9.46289C111.635 7.29987 112.752 4.24232 113.648 0.332031Z" stroke="#1A83FE" stroke-width="0.332308"/>
<path d="M113.648 0.332031C113.918 0.637457 114.157 1.04325 114.375 1.52148C114.644 2.11546 114.875 2.80545 115.094 3.51953C115.312 4.22871 115.521 4.96911 115.74 5.64258C115.959 6.3175 116.195 6.94432 116.475 7.43555C118.629 11.2111 122.696 12.6134 126.441 13.7646C122.238 15.3123 119.769 16.6265 118.051 18.6289C116.31 20.6586 115.355 23.3786 114.111 27.6992C113.543 27.0904 113.129 26.0985 112.787 25.0156C112.598 24.42 112.434 23.8077 112.276 23.2305C112.118 22.6554 111.966 22.1123 111.804 21.666C110.913 19.2152 109.055 17.5367 106.905 16.2207C104.949 15.0239 102.726 14.1113 100.752 13.1973C104.915 12.8214 107.689 11.5829 109.642 9.46289C111.635 7.29987 112.752 4.24232 113.648 0.332031Z" stroke="url(#paint2_linear_51_8)" stroke-width="0.332308"/>
<path d="M8.40918 157.596C8.59981 157.819 8.78233 158.121 8.95801 158.484C9.20035 158.985 9.42314 159.582 9.64355 160.205C9.8628 160.824 10.0801 161.472 10.3086 162.06C10.5369 162.648 10.7809 163.191 11.0586 163.602C11.7702 164.657 12.7699 165.288 13.8623 165.722C14.788 166.09 15.7931 166.32 16.752 166.543C14.3037 167.563 12.6764 168.322 11.5234 169.512C10.3086 170.766 9.63356 172.479 9.03125 175.403L8.81055 175.417C8.32388 173.888 7.96673 172.706 7.6123 171.765C7.24758 170.797 6.87992 170.068 6.36328 169.464C5.38095 168.316 3.88068 167.646 0.947266 166.564C3.5177 165.735 5.20972 164.926 6.3418 163.611C7.49586 162.27 8.04829 160.43 8.40918 157.596Z" fill="#1A83FE"/>
<path d="M8.40918 157.596C8.59981 157.819 8.78233 158.121 8.95801 158.484C9.20035 158.985 9.42314 159.582 9.64355 160.205C9.8628 160.824 10.0801 161.472 10.3086 162.06C10.5369 162.648 10.7809 163.191 11.0586 163.602C11.7702 164.657 12.7699 165.288 13.8623 165.722C14.788 166.09 15.7931 166.32 16.752 166.543C14.3037 167.563 12.6764 168.322 11.5234 169.512C10.3086 170.766 9.63356 172.479 9.03125 175.403L8.81055 175.417C8.32388 173.888 7.96673 172.706 7.6123 171.765C7.24758 170.797 6.87992 170.068 6.36328 169.464C5.38095 168.316 3.88068 167.646 0.947266 166.564C3.5177 165.735 5.20972 164.926 6.3418 163.611C7.49586 162.27 8.04829 160.43 8.40918 157.596Z" fill="url(#paint3_linear_51_8)"/>
<path d="M8.40918 157.596C8.59981 157.819 8.78233 158.121 8.95801 158.484C9.20035 158.985 9.42314 159.582 9.64355 160.205C9.8628 160.824 10.0801 161.472 10.3086 162.06C10.5369 162.648 10.7809 163.191 11.0586 163.602C11.7702 164.657 12.7699 165.288 13.8623 165.722C14.788 166.09 15.7931 166.32 16.752 166.543C14.3037 167.563 12.6764 168.322 11.5234 169.512C10.3086 170.766 9.63356 172.479 9.03125 175.403L8.81055 175.417C8.32388 173.888 7.96673 172.706 7.6123 171.765C7.24758 170.797 6.87992 170.068 6.36328 169.464C5.38095 168.316 3.88068 167.646 0.947266 166.564C3.5177 165.735 5.20972 164.926 6.3418 163.611C7.49586 162.27 8.04829 160.43 8.40918 157.596Z" stroke="#1A83FE" stroke-width="0.332308"/>
<path d="M8.40918 157.596C8.59981 157.819 8.78233 158.121 8.95801 158.484C9.20035 158.985 9.42314 159.582 9.64355 160.205C9.8628 160.824 10.0801 161.472 10.3086 162.06C10.5369 162.648 10.7809 163.191 11.0586 163.602C11.7702 164.657 12.7699 165.288 13.8623 165.722C14.788 166.09 15.7931 166.32 16.752 166.543C14.3037 167.563 12.6764 168.322 11.5234 169.512C10.3086 170.766 9.63356 172.479 9.03125 175.403L8.81055 175.417C8.32388 173.888 7.96673 172.706 7.6123 171.765C7.24758 170.797 6.87992 170.068 6.36328 169.464C5.38095 168.316 3.88068 167.646 0.947266 166.564C3.5177 165.735 5.20972 164.926 6.3418 163.611C7.49586 162.27 8.04829 160.43 8.40918 157.596Z" stroke="url(#paint4_linear_51_8)" stroke-width="0.332308"/>
<path d="M140.463 24.4473C140.889 25.4479 141.102 26.3243 141.388 27.3193C141.712 28.4472 142.126 29.7081 143.047 31.4248L143.066 31.4619L143.103 31.4854C144.381 32.3184 146.066 33.1537 147.478 33.8848C144.82 34.7253 143.429 35.3743 142.53 36.4688C142.06 37.0413 141.732 37.7265 141.421 38.6016C141.121 39.4449 140.831 40.4787 140.45 41.7705L140.188 41.7373C139.772 40.3124 139.02 38.4695 138.5 37.083L138.484 37.041L138.45 37.0127L137.973 36.6289C136.891 35.7773 136.027 35.2297 135.114 34.7803C134.191 34.326 133.22 33.9726 131.935 33.5078C134.903 32.719 136.611 31.9511 137.786 30.6211C138.965 29.2869 139.59 27.4036 140.463 24.4473Z" fill="#1A83FE"/>
<path d="M140.463 24.4473C140.889 25.4479 141.102 26.3243 141.388 27.3193C141.712 28.4472 142.126 29.7081 143.047 31.4248L143.066 31.4619L143.103 31.4854C144.381 32.3184 146.066 33.1537 147.478 33.8848C144.82 34.7253 143.429 35.3743 142.53 36.4688C142.06 37.0413 141.732 37.7265 141.421 38.6016C141.121 39.4449 140.831 40.4787 140.45 41.7705L140.188 41.7373C139.772 40.3124 139.02 38.4695 138.5 37.083L138.484 37.041L138.45 37.0127L137.973 36.6289C136.891 35.7773 136.027 35.2297 135.114 34.7803C134.191 34.326 133.22 33.9726 131.935 33.5078C134.903 32.719 136.611 31.9511 137.786 30.6211C138.965 29.2869 139.59 27.4036 140.463 24.4473Z" fill="url(#paint5_linear_51_8)"/>
<path d="M140.463 24.4473C140.889 25.4479 141.102 26.3243 141.388 27.3193C141.712 28.4472 142.126 29.7081 143.047 31.4248L143.066 31.4619L143.103 31.4854C144.381 32.3184 146.066 33.1537 147.478 33.8848C144.82 34.7253 143.429 35.3743 142.53 36.4688C142.06 37.0413 141.732 37.7265 141.421 38.6016C141.121 39.4449 140.831 40.4787 140.45 41.7705L140.188 41.7373C139.772 40.3124 139.02 38.4695 138.5 37.083L138.484 37.041L138.45 37.0127L137.973 36.6289C136.891 35.7773 136.027 35.2297 135.114 34.7803C134.191 34.326 133.22 33.9726 131.935 33.5078C134.903 32.719 136.611 31.9511 137.786 30.6211C138.965 29.2869 139.59 27.4036 140.463 24.4473Z" stroke="#1A83FE" stroke-width="0.332308"/>
<path d="M140.463 24.4473C140.889 25.4479 141.102 26.3243 141.388 27.3193C141.712 28.4472 142.126 29.7081 143.047 31.4248L143.066 31.4619L143.103 31.4854C144.381 32.3184 146.066 33.1537 147.478 33.8848C144.82 34.7253 143.429 35.3743 142.53 36.4688C142.06 37.0413 141.732 37.7265 141.421 38.6016C141.121 39.4449 140.831 40.4787 140.45 41.7705L140.188 41.7373C139.772 40.3124 139.02 38.4695 138.5 37.083L138.484 37.041L138.45 37.0127L137.973 36.6289C136.891 35.7773 136.027 35.2297 135.114 34.7803C134.191 34.326 133.22 33.9726 131.935 33.5078C134.903 32.719 136.611 31.9511 137.786 30.6211C138.965 29.2869 139.59 27.4036 140.463 24.4473Z" stroke="url(#paint6_linear_51_8)" stroke-width="0.332308"/>
<defs>
<linearGradient id="paint0_linear_51_8" x1="74.2137" y1="19.3827" x2="74.2137" y2="180" gradientUnits="userSpaceOnUse">
<stop stop-color="#6F5AF7"/>
<stop offset="1" stop-color="#A294FF"/>
</linearGradient>
<linearGradient id="paint1_linear_51_8" x1="113.538" y1="0" x2="113.538" y2="28.0116" gradientUnits="userSpaceOnUse">
<stop stop-color="#6F5AF7"/>
<stop offset="1" stop-color="#A294FF"/>
</linearGradient>
<linearGradient id="paint2_linear_51_8" x1="113.538" y1="0" x2="113.538" y2="28.0116" gradientUnits="userSpaceOnUse">
<stop stop-color="#6F5AF7"/>
<stop offset="1" stop-color="#A294FF"/>
</linearGradient>
<linearGradient id="paint3_linear_51_8" x1="8.86539" y1="157.242" x2="8.86539" y2="175.59" gradientUnits="userSpaceOnUse">
<stop stop-color="#6F5AF7"/>
<stop offset="1" stop-color="#A294FF"/>
</linearGradient>
<linearGradient id="paint4_linear_51_8" x1="8.86539" y1="157.242" x2="8.86539" y2="175.59" gradientUnits="userSpaceOnUse">
<stop stop-color="#6F5AF7"/>
<stop offset="1" stop-color="#A294FF"/>
</linearGradient>
<linearGradient id="paint5_linear_51_8" x1="139.643" y1="23.9688" x2="139.643" y2="41.9539" gradientUnits="userSpaceOnUse">
<stop stop-color="#6F5AF7"/>
<stop offset="1" stop-color="#A294FF"/>
</linearGradient>
<linearGradient id="paint6_linear_51_8" x1="139.643" y1="23.9688" x2="139.643" y2="41.9539" gradientUnits="userSpaceOnUse">
<stop stop-color="#6F5AF7"/>
<stop offset="1" stop-color="#A294FF"/>
</linearGradient>
</defs>
</svg>
